<svg id="visual" viewBox="0 0 900 600" width="900" height="600" xmlns="http://www.w3.org/2000/svg" xmlns:xlink="http://www.w3.org/1999/xlink" version="1.1"><rect x="0" y="0" width="900" height="600" fill="#fff"></rect><path d="M0 358L21.5 371.8C43 385.7 86 413.3 128.8 389.3C171.7 365.3 214.3 289.7 257.2 295.5C300 301.3 343 388.7 385.8 401.3C428.7 414 471.3 352 514.2 351C557 350 600 410 642.8 455.2C685.7 500.3 728.3 530.7 771.2 509.8C814 489 857 417 878.5 381L900 345L900 0L878.5 0C857 0 814 0 771.2 0C728.3 0 685.7 0 642.8 0C600 0 557 0 514.2 0C471.3 0 428.7 0 385.8 0C343 0 300 0 257.2 0C214.3 0 171.7 0 128.8 0C86 0 43 0 21.5 0L0 0Z" fill="#6fc469"></path><path d="M0 229L21.5 239.8C43 250.7 86 272.3 128.8 245C171.7 217.7 214.3 141.3 257.2 133.3C300 125.3 343 185.7 385.8 183.2C428.7 180.7 471.3 115.3 514.2 99.3C557 83.3 600 116.7 642.8 150.7C685.7 184.7 728.3 219.3 771.2 210.5C814 201.7 857 149.3 878.5 123.2L900 97L900 0L878.5 0C857 0 814 0 771.2 0C728.3 0 685.7 0 642.8 0C600 0 557 0 514.2 0C471.3 0 428.7 0 385.8 0C343 0 300 0 257.2 0C214.3 0 171.7 0 128.8 0C86 0 43 0 21.5 0L0 0Z" fill="#257e25"></path></svg>